<?xml version="1.0" encoding="UTF-8" standalone="no"?>
<!DOCTYPE svg PUBLIC "-//W3C//DTD SVG 1.1//EN"
 "http://www.w3.org/Graphics/SVG/1.1/DTD/svg11.dtd">
<!-- Generated by graphviz version 2.38.0 (20140413.2041)
 -->
<!-- Title: %3 Pages: 1 -->
<svg width="839pt" height="332pt"
 viewBox="0.00 0.00 839.28 332.00" xmlns="http://www.w3.org/2000/svg" xmlns:xlink="http://www.w3.org/1999/xlink">
<g id="graph0" class="graph" transform="scale(1 1) rotate(0) translate(4 328)">
<title>%3</title>
<polygon fill="white" stroke="none" points="-4,4 -4,-328 835.277,-328 835.277,4 -4,4"/>
<!-- x -->
<g id="node1" class="node"><title>x</title>
<ellipse fill="none" stroke="black" cx="399.039" cy="-306" rx="27" ry="18"/>
<text text-anchor="middle" x="399.039" y="-302.3" font-family="Times New Roman,serif" font-size="14.00">x</text>
</g>
<!-- OneHotEncoder(protocol_type) -->
<g id="node2" class="node"><title>OneHotEncoder(protocol_type)</title>
<ellipse fill="none" stroke="black" cx="128.039" cy="-162" rx="128.077" ry="18"/>
<text text-anchor="middle" x="128.039" y="-158.3" font-family="Times New Roman,serif" font-size="14.00">OneHotEncoder(protocol_type)</text>
</g>
<!-- x&#45;&gt;OneHotEncoder(protocol_type) -->
<g id="edge1" class="edge"><title>x&#45;&gt;OneHotEncoder(protocol_type)</title>
<path fill="none" stroke="black" d="M378.224,-294.093C333.4,-270.606 227.073,-214.893 168.493,-184.198"/>
<polygon fill="black" stroke="black" points="170,-181.036 159.518,-179.495 166.751,-187.236 170,-181.036"/>
</g>
<!-- OneHotEncoder(service) -->
<g id="node3" class="node"><title>OneHotEncoder(service)</title>
<ellipse fill="none" stroke="black" cx="375.039" cy="-162" rx="101.282" ry="18"/>
<text text-anchor="middle" x="375.039" y="-158.3" font-family="Times New Roman,serif" font-size="14.00">OneHotEncoder(service)</text>
</g>
<!-- x&#45;&gt;OneHotEncoder(service) -->
<g id="edge2" class="edge"><title>x&#45;&gt;OneHotEncoder(service)</title>
<path fill="none" stroke="black" d="M384.559,-290.712C375.589,-280.797 364.885,-266.762 360.039,-252 353.348,-231.62 358.102,-207.586 363.974,-189.634"/>
<polygon fill="black" stroke="black" points="367.314,-190.69 367.384,-180.095 360.722,-188.334 367.314,-190.69"/>
</g>
<!-- OneHotEncoder(flag) -->
<g id="node4" class="node"><title>OneHotEncoder(flag)</title>
<ellipse fill="none" stroke="black" cx="458.039" cy="-234" rx="89.0842" ry="18"/>
<text text-anchor="middle" x="458.039" y="-230.3" font-family="Times New Roman,serif" font-size="14.00">OneHotEncoder(flag)</text>
</g>
<!-- x&#45;&gt;OneHotEncoder(flag) -->
<g id="edge3" class="edge"><title>x&#45;&gt;OneHotEncoder(flag)</title>
<path fill="none" stroke="black" d="M411.841,-289.811C419.222,-281.054 428.682,-269.83 437.117,-259.822"/>
<polygon fill="black" stroke="black" points="439.835,-262.029 443.603,-252.127 434.482,-257.517 439.835,-262.029"/>
</g>
<!-- ~[&#39;flag&#39;, &#39;protocol_type&#39;, &#39;service&#39;] -->
<g id="node5" class="node"><title>~[&#39;flag&#39;, &#39;protocol_type&#39;, &#39;service&#39;]</title>
<ellipse fill="none" stroke="black" cx="698.039" cy="-234" rx="133.477" ry="18"/>
<text text-anchor="middle" x="698.039" y="-230.3" font-family="Times New Roman,serif" font-size="14.00">~[&#39;flag&#39;, &#39;protocol_type&#39;, &#39;service&#39;]</text>
</g>
<!-- x&#45;&gt;~[&#39;flag&#39;, &#39;protocol_type&#39;, &#39;service&#39;] -->
<g id="edge5" class="edge"><title>x&#45;&gt;~[&#39;flag&#39;, &#39;protocol_type&#39;, &#39;service&#39;]</title>
<path fill="none" stroke="black" d="M424.017,-299.152C467.672,-288.932 559.412,-267.454 624.705,-252.168"/>
<polygon fill="black" stroke="black" points="625.602,-255.553 634.541,-249.866 624.007,-248.737 625.602,-255.553"/>
</g>
<!-- LogisticRegression -->
<g id="node7" class="node"><title>LogisticRegression</title>
<ellipse fill="none" stroke="black" cx="439.039" cy="-90" rx="80.6858" ry="18"/>
<text text-anchor="middle" x="439.039" y="-86.3" font-family="Times New Roman,serif" font-size="14.00">LogisticRegression</text>
</g>
<!-- OneHotEncoder(protocol_type)&#45;&gt;LogisticRegression -->
<g id="edge7" class="edge"><title>OneHotEncoder(protocol_type)&#45;&gt;LogisticRegression</title>
<path fill="none" stroke="black" d="M192.856,-146.411C246.122,-134.422 321.209,-117.521 374.42,-105.544"/>
<polygon fill="black" stroke="black" points="375.437,-108.903 384.424,-103.293 373.9,-102.074 375.437,-108.903"/>
</g>
<!-- OneHotEncoder(service)&#45;&gt;LogisticRegression -->
<g id="edge8" class="edge"><title>OneHotEncoder(service)&#45;&gt;LogisticRegression</title>
<path fill="none" stroke="black" d="M390.531,-144.055C398.392,-135.457 408.084,-124.857 416.732,-115.397"/>
<polygon fill="black" stroke="black" points="419.524,-117.531 423.689,-107.789 414.358,-112.808 419.524,-117.531"/>
</g>
<!-- OneHotEncoder(flag)&#45;&gt;LogisticRegression -->
<g id="edge9" class="edge"><title>OneHotEncoder(flag)&#45;&gt;LogisticRegression</title>
<path fill="none" stroke="black" d="M469.785,-216.059C480.782,-197.996 494.246,-168.656 485.039,-144 480.992,-133.164 473.62,-123.076 465.947,-114.671"/>
<polygon fill="black" stroke="black" points="468.39,-112.164 458.901,-107.453 463.381,-117.054 468.39,-112.164"/>
</g>
<!-- StandardScaler -->
<g id="node6" class="node"><title>StandardScaler</title>
<ellipse fill="none" stroke="black" cx="631.039" cy="-162" rx="65.7887" ry="18"/>
<text text-anchor="middle" x="631.039" y="-158.3" font-family="Times New Roman,serif" font-size="14.00">StandardScaler</text>
</g>
<!-- ~[&#39;flag&#39;, &#39;protocol_type&#39;, &#39;service&#39;]&#45;&gt;StandardScaler -->
<g id="edge4" class="edge"><title>~[&#39;flag&#39;, &#39;protocol_type&#39;, &#39;service&#39;]&#45;&gt;StandardScaler</title>
<path fill="none" stroke="black" d="M681.82,-216.055C673.508,-207.371 663.241,-196.644 654.119,-187.114"/>
<polygon fill="black" stroke="black" points="656.551,-184.593 647.108,-179.789 651.494,-189.433 656.551,-184.593"/>
</g>
<!-- StandardScaler&#45;&gt;LogisticRegression -->
<g id="edge10" class="edge"><title>StandardScaler&#45;&gt;LogisticRegression</title>
<path fill="none" stroke="black" d="M593.106,-147.17C563.294,-136.302 521.517,-121.07 488.985,-109.21"/>
<polygon fill="black" stroke="black" points="489.804,-105.783 479.21,-105.646 487.406,-112.359 489.804,-105.783"/>
</g>
<!-- y -->
<g id="node8" class="node"><title>y</title>
<ellipse fill="none" stroke="black" cx="439.039" cy="-18" rx="27" ry="18"/>
<text text-anchor="middle" x="439.039" y="-14.3" font-family="Times New Roman,serif" font-size="14.00">y</text>
</g>
<!-- LogisticRegression&#45;&gt;y -->
<g id="edge6" class="edge"><title>LogisticRegression&#45;&gt;y</title>
<path fill="none" stroke="black" d="M439.039,-71.6966C439.039,-63.9827 439.039,-54.7125 439.039,-46.1124"/>
<polygon fill="black" stroke="black" points="442.539,-46.1043 439.039,-36.1043 435.539,-46.1044 442.539,-46.1043"/>
</g>
</g>
</svg>
